solid House1
facet normal 0.0 0.0 -1.0
  outer loop
    vertex 6.562500000000008 15.000000000000004 4.4375
    vertex 0.0 0.0 4.4375
    vertex 0.0 15.000000000000004 4.4375
  endloop
endfacet
facet normal 0.0 0.0 -1.0
  outer loop
    vertex 0.0 0.0 4.4375
    vertex 6.562500000000008 15.000000000000004 4.4375
    vertex 15.000000000000004 0.0 4.4375
  endloop
endfacet
facet normal 0.0 0.0 -1.0
  outer loop
    vertex 15.000000000000004 0.0 4.4375
    vertex 6.562500000000008 15.000000000000004 4.4375
    vertex 15.000000000000004 6.562500000000012 4.4375
  endloop
endfacet
facet normal 0.0 0.0 -1.0
  outer loop
    vertex 15.000000000000004 0.0 4.4375
    vertex 15.000000000000004 6.562500000000012 4.4375
    vertex 15.000000000000004 4.312500000000001 4.4375
  endloop
endfacet
facet normal 0.0 0.0 -1.0
  outer loop
    vertex 38.80434726661556 8.375 5.5625
    vertex 36.480564682203365 0.0 5.5625
    vertex 36.480564682203365 8.375 5.5625
  endloop
endfacet
facet normal 0.0 0.0 -1.0
  outer loop
    vertex 36.480564682203365 0.0 5.5625
    vertex 38.80434726661556 8.375 5.5625
    vertex 38.80434726661556 0.0 5.5625
  endloop
endfacet
facet normal 1.0 -0.0 -0.0
  outer loop
    vertex 36.480564682203365 8.375 0.0
    vertex 36.480564682203365 0.0 5.5625
    vertex 36.480564682203365 0.0 0.0
  endloop
endfacet
facet normal 1.0 -0.0 -0.0
  outer loop
    vertex 36.480564682203365 0.0 5.5625
    vertex 36.480564682203365 8.375 0.0
    vertex 36.480564682203365 8.375 5.5625
  endloop
endfacet
facet normal 0.0 -1.0 0.0
  outer loop
    vertex 63.418064682203365 8.375 0.0
    vertex 60.961756222112946 8.375 2.75
    vertex 36.480564682203365 8.375 0.0
  endloop
endfacet
facet normal 0.0 -1.0 0.0
  outer loop
    vertex 60.961756222112946 8.375 2.75
    vertex 63.418064682203365 8.375 0.0
    vertex 63.418064682203365 8.375 5.5625
  endloop
endfacet
facet normal 0.0 -1.0 0.0
  outer loop
    vertex 60.961756222112946 8.375 2.75
    vertex 63.418064682203365 8.375 5.5625
    vertex 60.961756222112946 8.375 5.5625
  endloop
endfacet
facet normal 0.0 -1.0 0.0
  outer loop
    vertex 36.480564682203365 8.375 0.0
    vertex 38.80434726661556 8.375 2.75
    vertex 36.480564682203365 8.375 5.5625
  endloop
endfacet
facet normal 0.0 -1.0 0.0
  outer loop
    vertex 38.80434726661556 8.375 2.75
    vertex 36.480564682203365 8.375 0.0
    vertex 60.961756222112946 8.375 2.75
  endloop
endfacet
facet normal 0.0 -1.0 0.0
  outer loop
    vertex 36.480564682203365 8.375 5.5625
    vertex 38.80434726661556 8.375 2.75
    vertex 38.80434726661556 8.375 5.5625
  endloop
endfacet
facet normal -1.0 -0.0 -0.0
  outer loop
    vertex 63.418064682203365 8.375 5.5625
    vertex 63.418064682203365 0.0 0.0
    vertex 63.418064682203365 0.0 5.5625
  endloop
endfacet
facet normal -1.0 -0.0 -0.0
  outer loop
    vertex 63.418064682203365 0.0 0.0
    vertex 63.418064682203365 8.375 5.5625
    vertex 63.418064682203365 8.375 0.0
  endloop
endfacet
facet normal 0.0 -1.0 0.0
  outer loop
    vertex 57.610735004592655 0.6875 15.620838767348637
    vertex 41.985735004592655 0.6875 8.995838767348637
    vertex 57.610735004592655 0.6875 8.995838767348637
  endloop
endfacet
facet normal 0.0 -1.0 0.0
  outer loop
    vertex 41.985735004592655 0.6875 8.995838767348637
    vertex 57.610735004592655 0.6875 15.620838767348637
    vertex 41.985735004592655 0.6875 15.620838767348637
  endloop
endfacet
facet normal 1.0 0.0 0.0
  outer loop
    vertex 41.985735004592655 0.6875 8.995838767348637
    vertex 41.985735004592655 0.0 15.620838767348637
    vertex 41.985735004592655 0.0 8.995838767348637
  endloop
endfacet
facet normal 1.0 0.0 0.0
  outer loop
    vertex 41.985735004592655 0.0 15.620838767348637
    vertex 41.985735004592655 0.6875 8.995838767348637
    vertex 41.985735004592655 0.6875 15.620838767348637
  endloop
endfacet
facet normal -0.0 -0.0 1.0
  outer loop
    vertex 57.610735004592655 0.0 8.995838767348637
    vertex 41.985735004592655 0.6875 8.995838767348637
    vertex 41.985735004592655 0.0 8.995838767348637
  endloop
endfacet
facet normal -0.0 -0.0 1.0
  outer loop
    vertex 41.985735004592655 0.6875 8.995838767348637
    vertex 57.610735004592655 0.0 8.995838767348637
    vertex 57.610735004592655 0.6875 8.995838767348637
  endloop
endfacet
facet normal -1.0 -0.0 0.0
  outer loop
    vertex 57.610735004592655 0.6875 15.620838767348637
    vertex 57.610735004592655 0.0 8.995838767348637
    vertex 57.610735004592655 0.0 15.620838767348637
  endloop
endfacet
facet normal -1.0 -0.0 0.0
  outer loop
    vertex 57.610735004592655 0.0 8.995838767348637
    vertex 57.610735004592655 0.6875 15.620838767348637
    vertex 57.610735004592655 0.6875 8.995838767348637
  endloop
endfacet
facet normal -0.0 -0.0 -1.0
  outer loop
    vertex 57.610735004592655 0.6875 15.620838767348637
    vertex 41.985735004592655 0.0 15.620838767348637
    vertex 41.985735004592655 0.6875 15.620838767348637
  endloop
endfacet
facet normal -0.0 -0.0 -1.0
  outer loop
    vertex 41.985735004592655 0.0 15.620838767348637
    vertex 57.610735004592655 0.6875 15.620838767348637
    vertex 57.610735004592655 0.0 15.620838767348637
  endloop
endfacet
facet normal 0.0 0.0 -1.0
  outer loop
    vertex 63.418064682203365 8.375 5.5625
    vertex 60.961756222112946 0.0 5.5625
    vertex 60.961756222112946 8.375 5.5625
  endloop
endfacet
facet normal 0.0 0.0 -1.0
  outer loop
    vertex 60.961756222112946 0.0 5.5625
    vertex 63.418064682203365 8.375 5.5625
    vertex 63.418064682203365 0.0 5.5625
  endloop
endfacet
facet normal 0.0 0.0 -1.0
  outer loop
    vertex 60.961756222112946 8.375 2.75
    vertex 38.80434726661556 0.0 2.75
    vertex 38.80434726661556 8.375 2.75
  endloop
endfacet
facet normal 0.0 0.0 -1.0
  outer loop
    vertex 38.80434726661556 0.0 2.75
    vertex 60.961756222112946 8.375 2.75
    vertex 60.961756222112946 0.0 2.75
  endloop
endfacet
facet normal 1.0 0.0 0.0
  outer loop
    vertex 60.961756222112946 8.375 2.75
    vertex 60.961756222112946 0.0 5.5625
    vertex 60.961756222112946 0.0 2.75
  endloop
endfacet
facet normal 1.0 0.0 0.0
  outer loop
    vertex 60.961756222112946 0.0 5.5625
    vertex 60.961756222112946 8.375 2.75
    vertex 60.961756222112946 8.375 5.5625
  endloop
endfacet
facet normal -1.0 0.0 0.0
  outer loop
    vertex 38.80434726661556 8.375 5.5625
    vertex 38.80434726661556 0.0 2.75
    vertex 38.80434726661556 0.0 5.5625
  endloop
endfacet
facet normal -1.0 0.0 0.0
  outer loop
    vertex 38.80434726661556 0.0 2.75
    vertex 38.80434726661556 8.375 5.5625
    vertex 38.80434726661556 8.375 2.75
  endloop
endfacet
facet normal 0.0 0.0 -1.0
  outer loop
    vertex 29.244670432235083 4.950882753780888 6.25
    vertex 29.24467043223508 3.1715018187010573 6.25
    vertex 29.127540460103752 4.0611922862409715 6.25
  endloop
endfacet
facet normal 0.0 0.0 -1.0
  outer loop
    vertex 29.24467043223508 3.1715018187010573 6.25
    vertex 29.244670432235083 4.950882753780888 6.25
    vertex 29.588078134594742 2.3424422862409733 6.25
  endloop
endfacet
facet normal 0.0 0.0 -1.0
  outer loop
    vertex 29.588078134594742 2.3424422862409733 6.25
    vertex 29.244670432235083 4.950882753780888 6.25
    vertex 29.588078134594745 5.779942286240972 6.25
  endloop
endfacet
facet normal 0.0 0.0 -1.0
  outer loop
    vertex 29.588078134594742 2.3424422862409733 6.25
    vertex 29.588078134594745 5.779942286240972 6.25
    vertex 30.134360899774997 1.6305127259122143 6.25
  endloop
endfacet
facet normal 0.0 0.0 -1.0
  outer loop
    vertex 30.134360899774997 1.6305127259122143 6.25
    vertex 29.588078134594745 5.779942286240972 6.25
    vertex 30.134360899774997 6.491871846569729 6.25
  endloop
endfacet
facet normal 0.0 0.0 -1.0
  outer loop
    vertex 30.134360899774997 1.6305127259122143 6.25
    vertex 30.134360899774997 6.491871846569729 6.25
    vertex 30.846290460103752 7.038154611749979 6.25
  endloop
endfacet
facet normal 0.0 0.0 -1.0
  outer loop
    vertex 30.134360899774997 1.6305127259122143 6.25
    vertex 30.846290460103752 7.038154611749979 6.25
    vertex 30.846290460103752 1.0842299607319639 6.25
  endloop
endfacet
facet normal 0.0 0.0 -1.0
  outer loop
    vertex 30.846290460103752 1.0842299607319639 6.25
    vertex 30.846290460103752 7.038154611749979 6.25
    vertex 31.675349992563838 7.381562314109643 6.25
  endloop
endfacet
facet normal 0.0 0.0 -1.0
  outer loop
    vertex 30.846290460103752 1.0842299607319639 6.25
    vertex 31.675349992563838 7.381562314109643 6.25
    vertex 31.675349992563834 0.7408222583722996 6.25
  endloop
endfacet
facet normal 0.0 0.0 -1.0
  outer loop
    vertex 31.675349992563834 0.7408222583722996 6.25
    vertex 31.675349992563838 7.381562314109643 6.25
    vertex 32.56504046010375 0.6236922862409711 6.25
  endloop
endfacet
facet normal 0.0 0.0 -1.0
  outer loop
    vertex 32.56504046010375 0.6236922862409711 6.25
    vertex 31.675349992563838 7.381562314109643 6.25
    vertex 32.56504046010375 7.498692286240971 6.25
  endloop
endfacet
facet normal 0.0 0.0 -1.0
  outer loop
    vertex 32.56504046010375 0.6236922862409711 6.25
    vertex 32.56504046010375 7.498692286240971 6.25
    vertex 33.454730927643666 7.381562314109642 6.25
  endloop
endfacet
facet normal 0.0 0.0 -1.0
  outer loop
    vertex 32.56504046010375 0.6236922862409711 6.25
    vertex 33.454730927643666 7.381562314109642 6.25
    vertex 33.454730927643666 0.7408222583722988 6.25
  endloop
endfacet
facet normal 0.0 0.0 -1.0
  outer loop
    vertex 33.454730927643666 0.7408222583722988 6.25
    vertex 33.454730927643666 7.381562314109642 6.25
    vertex 34.28379046010375 7.038154611749977 6.25
  endloop
endfacet
facet normal 0.0 0.0 -1.0
  outer loop
    vertex 33.454730927643666 0.7408222583722988 6.25
    vertex 34.28379046010375 7.038154611749977 6.25
    vertex 34.28379046010375 1.084229960731963 6.25
  endloop
endfacet
facet normal 0.0 0.0 -1.0
  outer loop
    vertex 34.28379046010375 1.084229960731963 6.25
    vertex 34.28379046010375 7.038154611749977 6.25
    vertex 34.99572002043251 6.491871846569728 6.25
  endloop
endfacet
facet normal 0.0 0.0 -1.0
  outer loop
    vertex 34.28379046010375 1.084229960731963 6.25
    vertex 34.99572002043251 6.491871846569728 6.25
    vertex 34.99572002043251 1.6305127259122139 6.25
  endloop
endfacet
facet normal 0.0 0.0 -1.0
  outer loop
    vertex 34.99572002043251 1.6305127259122139 6.25
    vertex 34.99572002043251 6.491871846569728 6.25
    vertex 35.54200278561276 5.77994228624097 6.25
  endloop
endfacet
facet normal 0.0 0.0 -1.0
  outer loop
    vertex 34.99572002043251 1.6305127259122139 6.25
    vertex 35.54200278561276 5.77994228624097 6.25
    vertex 35.54200278561276 2.3424422862409706 6.25
  endloop
endfacet
facet normal 0.0 0.0 -1.0
  outer loop
    vertex 35.54200278561276 2.3424422862409706 6.25
    vertex 35.54200278561276 5.77994228624097 6.25
    vertex 35.88541048797242 4.950882753780885 6.25
  endloop
endfacet
facet normal 0.0 0.0 -1.0
  outer loop
    vertex 35.54200278561276 2.3424422862409706 6.25
    vertex 35.88541048797242 4.950882753780885 6.25
    vertex 35.88541048797242 3.171501818701055 6.25
  endloop
endfacet
facet normal 0.0 0.0 -1.0
  outer loop
    vertex 35.88541048797242 3.171501818701055 6.25
    vertex 35.88541048797242 4.950882753780885 6.25
    vertex 36.00254046010375 4.061192286240971 6.25
  endloop
endfacet
facet normal -0.9914448613738102 0.13052619222005438 -0.0
  outer loop
    vertex 36.00254046010375 4.061192286240971 6.25
    vertex 35.88541048797242 3.171501818701055 0.0
    vertex 35.88541048797242 3.171501818701055 6.25
  endloop
endfacet
facet normal -0.9914448613738102 0.13052619222005438 -0.0
  outer loop
    vertex 35.88541048797242 3.171501818701055 0.0
    vertex 36.00254046010375 4.061192286240971 6.25
    vertex 36.00254046010375 4.061192286240971 0.0
  endloop
endfacet
facet normal -0.9238795325112874 0.3826834323650886 -0.0
  outer loop
    vertex 35.88541048797242 3.171501818701055 6.25
    vertex 35.54200278561276 2.3424422862409706 0.0
    vertex 35.54200278561276 2.3424422862409706 6.25
  endloop
endfacet
facet normal -0.9238795325112874 0.3826834323650886 -0.0
  outer loop
    vertex 35.54200278561276 2.3424422862409706 0.0
    vertex 35.88541048797242 3.171501818701055 6.25
    vertex 35.88541048797242 3.171501818701055 0.0
  endloop
endfacet
facet normal -0.7933533402912348 0.6087614290087213 -0.0
  outer loop
    vertex 35.54200278561276 2.3424422862409706 6.25
    vertex 34.99572002043251 1.6305127259122139 0.0
    vertex 34.99572002043251 1.6305127259122139 6.25
  endloop
endfacet
facet normal -0.7933533402912348 0.6087614290087213 -0.0
  outer loop
    vertex 34.99572002043251 1.6305127259122139 0.0
    vertex 35.54200278561276 2.3424422862409706 6.25
    vertex 35.54200278561276 2.3424422862409706 0.0
  endloop
endfacet
facet normal -0.6087614290087217 0.7933533402912344 -0.0
  outer loop
    vertex 34.28379046010375 1.084229960731963 6.25
    vertex 34.99572002043251 1.6305127259122139 0.0
    vertex 34.28379046010375 1.084229960731963 0.0
  endloop
endfacet
facet normal -0.6087614290087217 0.7933533402912344 -0.0
  outer loop
    vertex 34.99572002043251 1.6305127259122139 0.0
    vertex 34.28379046010375 1.084229960731963 6.25
    vertex 34.99572002043251 1.6305127259122139 6.25
  endloop
endfacet
facet normal -0.3826834323650893 0.9238795325112871 -0.0
  outer loop
    vertex 33.454730927643666 0.7408222583722988 6.25
    vertex 34.28379046010375 1.084229960731963 0.0
    vertex 33.454730927643666 0.7408222583722988 0.0
  endloop
endfacet
facet normal -0.3826834323650893 0.9238795325112871 -0.0
  outer loop
    vertex 34.28379046010375 1.084229960731963 0.0
    vertex 33.454730927643666 0.7408222583722988 6.25
    vertex 34.28379046010375 1.084229960731963 6.25
  endloop
endfacet
facet normal -0.13052619222005166 0.9914448613738104 -0.0
  outer loop
    vertex 32.56504046010375 0.6236922862409711 6.25
    vertex 33.454730927643666 0.7408222583722988 0.0
    vertex 32.56504046010375 0.6236922862409711 0.0
  endloop
endfacet
facet normal -0.13052619222005166 0.9914448613738104 -0.0
  outer loop
    vertex 33.454730927643666 0.7408222583722988 0.0
    vertex 32.56504046010375 0.6236922862409711 6.25
    vertex 33.454730927643666 0.7408222583722988 6.25
  endloop
endfacet
facet normal 0.13052619222005213 0.9914448613738104 0.0
  outer loop
    vertex 31.675349992563834 0.7408222583722996 6.25
    vertex 32.56504046010375 0.6236922862409711 0.0
    vertex 31.675349992563834 0.7408222583722996 0.0
  endloop
endfacet
facet normal 0.13052619222005213 0.9914448613738104 0.0
  outer loop
    vertex 32.56504046010375 0.6236922862409711 0.0
    vertex 31.675349992563834 0.7408222583722996 6.25
    vertex 32.56504046010375 0.6236922862409711 6.25
  endloop
endfacet
facet normal 0.38268343236509067 0.9238795325112864 0.0
  outer loop
    vertex 30.846290460103752 1.0842299607319639 6.25
    vertex 31.675349992563834 0.7408222583722996 0.0
    vertex 30.846290460103752 1.0842299607319639 0.0
  endloop
endfacet
facet normal 0.38268343236509067 0.9238795325112864 0.0
  outer loop
    vertex 31.675349992563834 0.7408222583722996 0.0
    vertex 30.846290460103752 1.0842299607319639 6.25
    vertex 31.675349992563834 0.7408222583722996 6.25
  endloop
endfacet
facet normal 0.6087614290087213 0.7933533402912346 0.0
  outer loop
    vertex 30.134360899774997 1.6305127259122143 6.25
    vertex 30.846290460103752 1.0842299607319639 0.0
    vertex 30.134360899774997 1.6305127259122143 0.0
  endloop
endfacet
facet normal 0.6087614290087213 0.7933533402912346 0.0
  outer loop
    vertex 30.846290460103752 1.0842299607319639 0.0
    vertex 30.134360899774997 1.6305127259122143 6.25
    vertex 30.846290460103752 1.0842299607319639 6.25
  endloop
endfacet
facet normal 0.7933533402912338 0.6087614290087225 0.0
  outer loop
    vertex 29.588078134594742 2.3424422862409733 0.0
    vertex 30.134360899774997 1.6305127259122143 6.25
    vertex 30.134360899774997 1.6305127259122143 0.0
  endloop
endfacet
facet normal 0.7933533402912338 0.6087614290087225 0.0
  outer loop
    vertex 30.134360899774997 1.6305127259122143 6.25
    vertex 29.588078134594742 2.3424422862409733 0.0
    vertex 29.588078134594742 2.3424422862409733 6.25
  endloop
endfacet
facet normal 0.9238795325112873 0.3826834323650887 0.0
  outer loop
    vertex 29.24467043223508 3.1715018187010573 0.0
    vertex 29.588078134594742 2.3424422862409733 6.25
    vertex 29.588078134594742 2.3424422862409733 0.0
  endloop
endfacet
facet normal 0.9238795325112873 0.3826834323650887 0.0
  outer loop
    vertex 29.588078134594742 2.3424422862409733 6.25
    vertex 29.24467043223508 3.1715018187010573 0.0
    vertex 29.24467043223508 3.1715018187010573 6.25
  endloop
endfacet
facet normal 0.9914448613738106 0.13052619222005069 0.0
  outer loop
    vertex 29.127540460103752 4.0611922862409715 0.0
    vertex 29.24467043223508 3.1715018187010573 6.25
    vertex 29.24467043223508 3.1715018187010573 0.0
  endloop
endfacet
facet normal 0.9914448613738106 0.13052619222005069 0.0
  outer loop
    vertex 29.24467043223508 3.1715018187010573 6.25
    vertex 29.127540460103752 4.0611922862409715 0.0
    vertex 29.127540460103752 4.0611922862409715 6.25
  endloop
endfacet
facet normal 0.9914448613738102 -0.1305261922200542 -0.0
  outer loop
    vertex 29.244670432235083 4.950882753780888 0.0
    vertex 29.127540460103752 4.0611922862409715 6.25
    vertex 29.127540460103752 4.0611922862409715 0.0
  endloop
endfacet
facet normal 0.9914448613738102 -0.1305261922200542 -0.0
  outer loop
    vertex 29.127540460103752 4.0611922862409715 6.25
    vertex 29.244670432235083 4.950882753780888 0.0
    vertex 29.244670432235083 4.950882753780888 6.25
  endloop
endfacet
facet normal 0.9238795325112873 -0.3826834323650887 -0.0
  outer loop
    vertex 29.588078134594745 5.779942286240972 0.0
    vertex 29.244670432235083 4.950882753780888 6.25
    vertex 29.244670432235083 4.950882753780888 0.0
  endloop
endfacet
facet normal 0.9238795325112873 -0.3826834323650887 -0.0
  outer loop
    vertex 29.244670432235083 4.950882753780888 6.25
    vertex 29.588078134594745 5.779942286240972 0.0
    vertex 29.588078134594745 5.779942286240972 6.25
  endloop
endfacet
facet normal 0.7933533402912346 -0.6087614290087215 -0.0
  outer loop
    vertex 30.134360899774997 6.491871846569729 0.0
    vertex 29.588078134594745 5.779942286240972 6.25
    vertex 29.588078134594745 5.779942286240972 0.0
  endloop
endfacet
facet normal 0.7933533402912346 -0.6087614290087215 -0.0
  outer loop
    vertex 29.588078134594745 5.779942286240972 6.25
    vertex 30.134360899774997 6.491871846569729 0.0
    vertex 30.134360899774997 6.491871846569729 6.25
  endloop
endfacet
facet normal 0.6087614290087213 -0.7933533402912346 -0.0
  outer loop
    vertex 30.846290460103752 7.038154611749979 6.25
    vertex 30.134360899774997 6.491871846569729 0.0
    vertex 30.846290460103752 7.038154611749979 0.0
  endloop
endfacet
facet normal 0.6087614290087213 -0.7933533402912346 -0.0
  outer loop
    vertex 30.134360899774997 6.491871846569729 0.0
    vertex 30.846290460103752 7.038154611749979 6.25
    vertex 30.134360899774997 6.491871846569729 6.25
  endloop
endfacet
facet normal 0.3826834323650889 -0.9238795325112872 -0.0
  outer loop
    vertex 31.675349992563838 7.381562314109643 6.25
    vertex 30.846290460103752 7.038154611749979 0.0
    vertex 31.675349992563838 7.381562314109643 0.0
  endloop
endfacet
facet normal 0.3826834323650889 -0.9238795325112872 -0.0
  outer loop
    vertex 30.846290460103752 7.038154611749979 0.0
    vertex 31.675349992563838 7.381562314109643 6.25
    vertex 30.846290460103752 7.038154611749979 6.25
  endloop
endfacet
facet normal 0.13052619222005166 -0.9914448613738104 -0.0
  outer loop
    vertex 32.56504046010375 7.498692286240971 6.25
    vertex 31.675349992563838 7.381562314109643 0.0
    vertex 32.56504046010375 7.498692286240971 0.0
  endloop
endfacet
facet normal 0.13052619222005166 -0.9914448613738104 -0.0
  outer loop
    vertex 31.675349992563838 7.381562314109643 0.0
    vertex 32.56504046010375 7.498692286240971 6.25
    vertex 31.675349992563838 7.381562314109643 6.25
  endloop
endfacet
facet normal -0.13052619222005263 -0.9914448613738104 -0.0
  outer loop
    vertex 33.454730927643666 7.381562314109642 6.25
    vertex 32.56504046010375 7.498692286240971 0.0
    vertex 33.454730927643666 7.381562314109642 0.0
  endloop
endfacet
facet normal -0.13052619222005263 -0.9914448613738104 -0.0
  outer loop
    vertex 32.56504046010375 7.498692286240971 0.0
    vertex 33.454730927643666 7.381562314109642 6.25
    vertex 32.56504046010375 7.498692286240971 6.25
  endloop
endfacet
facet normal -0.3826834323650897 -0.9238795325112868 -0.0
  outer loop
    vertex 34.28379046010375 7.038154611749977 6.25
    vertex 33.454730927643666 7.381562314109642 0.0
    vertex 34.28379046010375 7.038154611749977 0.0
  endloop
endfacet
facet normal -0.3826834323650897 -0.9238795325112868 -0.0
  outer loop
    vertex 33.454730927643666 7.381562314109642 0.0
    vertex 34.28379046010375 7.038154611749977 6.25
    vertex 33.454730927643666 7.381562314109642 6.25
  endloop
endfacet
facet normal -0.6087614290087207 -0.793353340291235 -0.0
  outer loop
    vertex 34.99572002043251 6.491871846569728 6.25
    vertex 34.28379046010375 7.038154611749977 0.0
    vertex 34.99572002043251 6.491871846569728 0.0
  endloop
endfacet
facet normal -0.6087614290087207 -0.793353340291235 -0.0
  outer loop
    vertex 34.28379046010375 7.038154611749977 0.0
    vertex 34.99572002043251 6.491871846569728 6.25
    vertex 34.28379046010375 7.038154611749977 6.25
  endloop
endfacet
facet normal -0.7933533402912354 -0.6087614290087205 -0.0
  outer loop
    vertex 34.99572002043251 6.491871846569728 6.25
    vertex 35.54200278561276 5.77994228624097 0.0
    vertex 35.54200278561276 5.77994228624097 6.25
  endloop
endfacet
facet normal -0.7933533402912354 -0.6087614290087205 -0.0
  outer loop
    vertex 35.54200278561276 5.77994228624097 0.0
    vertex 34.99572002043251 6.491871846569728 6.25
    vertex 34.99572002043251 6.491871846569728 0.0
  endloop
endfacet
facet normal -0.9238795325112873 -0.38268343236508834 -0.0
  outer loop
    vertex 35.54200278561276 5.77994228624097 6.25
    vertex 35.88541048797242 4.950882753780885 0.0
    vertex 35.88541048797242 4.950882753780885 6.25
  endloop
endfacet
facet normal -0.9238795325112873 -0.38268343236508834 -0.0
  outer loop
    vertex 35.88541048797242 4.950882753780885 0.0
    vertex 35.54200278561276 5.77994228624097 6.25
    vertex 35.54200278561276 5.77994228624097 0.0
  endloop
endfacet
facet normal -0.99144486137381 -0.13052619222005457 -0.0
  outer loop
    vertex 35.88541048797242 4.950882753780885 6.25
    vertex 36.00254046010375 4.061192286240971 0.0
    vertex 36.00254046010375 4.061192286240971 6.25
  endloop
endfacet
facet normal -0.99144486137381 -0.13052619222005457 -0.0
  outer loop
    vertex 36.00254046010375 4.061192286240971 0.0
    vertex 35.88541048797242 4.950882753780885 6.25
    vertex 35.88541048797242 4.950882753780885 0.0
  endloop
endfacet
facet normal 0.0 0.0 -1.0
  outer loop
    vertex 39.330901284849844 37.75056361355154 6.3125
    vertex 34.268401284849844 32.68806361355154 6.3125
    vertex 34.268401284849844 37.75056361355154 6.3125
  endloop
endfacet
facet normal 0.0 0.0 -1.0
  outer loop
    vertex 34.268401284849844 32.68806361355154 6.3125
    vertex 39.330901284849844 37.75056361355154 6.3125
    vertex 39.330901284849844 32.68806361355154 6.3125
  endloop
endfacet
facet normal -1.0 0.0 0.0
  outer loop
    vertex 39.330901284849844 37.75056361355154 6.3125
    vertex 39.330901284849844 32.68806361355154 4.5
    vertex 39.330901284849844 32.68806361355154 6.3125
  endloop
endfacet
facet normal -1.0 0.0 0.0
  outer loop
    vertex 39.330901284849844 32.68806361355154 4.5
    vertex 39.330901284849844 37.75056361355154 6.3125
    vertex 39.330901284849844 36.56306361355154 4.5
  endloop
endfacet
facet normal -1.0 0.0 0.0
  outer loop
    vertex 39.330901284849844 36.56306361355154 4.5
    vertex 39.330901284849844 37.75056361355154 6.3125
    vertex 39.330901284849844 36.56306361355154 3.3125
  endloop
endfacet
facet normal -1.0 0.0 0.0
  outer loop
    vertex 39.330901284849844 36.56306361355154 3.3125
    vertex 39.330901284849844 37.75056361355154 6.3125
    vertex 39.330901284849844 37.75056361355154 3.3125
  endloop
endfacet
facet normal 1.0 -0.0 -0.0
  outer loop
    vertex 34.268401284849844 37.75056361355154 3.875
    vertex 34.268401284849844 32.68806361355154 6.3125
    vertex 34.268401284849844 32.68806361355154 3.875
  endloop
endfacet
facet normal 1.0 -0.0 -0.0
  outer loop
    vertex 34.268401284849844 32.68806361355154 6.3125
    vertex 34.268401284849844 37.75056361355154 3.875
    vertex 34.268401284849844 37.75056361355154 6.3125
  endloop
endfacet
facet normal 0.0 0.0 -1.0
  outer loop
    vertex 39.330901284849844 41.83723906731083 2.5
    vertex 31.950417374380805 37.75056361355154 2.5
    vertex 31.950417374380805 41.83723906731083 2.5
  endloop
endfacet
facet normal 0.0 0.0 -1.0
  outer loop
    vertex 31.950417374380805 37.75056361355154 2.5
    vertex 39.330901284849844 41.83723906731083 2.5
    vertex 34.268401284849844 37.75056361355154 2.5
  endloop
endfacet
facet normal 0.0 0.0 -1.0
  outer loop
    vertex 34.268401284849844 37.75056361355154 2.5
    vertex 39.330901284849844 41.83723906731083 2.5
    vertex 39.330901284849844 37.75056361355154 2.5
  endloop
endfacet
facet normal 0.0 0.0 -1.0
  outer loop
    vertex 39.330901284849844 37.75056361355154 2.5
    vertex 39.330901284849844 41.83723906731083 2.5
    vertex 39.330901284849844 40.57471495201459 2.5
  endloop
endfacet
facet normal 0.0 -1.0 0.0
  outer loop
    vertex 34.268401284849844 37.75056361355154 2.5
    vertex 31.950417374380805 37.75056361355154 0.0
    vertex 34.268401284849844 37.75056361355154 0.0
  endloop
endfacet
facet normal 0.0 -1.0 0.0
  outer loop
    vertex 31.950417374380805 37.75056361355154 0.0
    vertex 34.268401284849844 37.75056361355154 2.5
    vertex 31.950417374380805 37.75056361355154 2.5
  endloop
endfacet
facet normal 1.0 -0.0 -0.0
  outer loop
    vertex 31.950417374380805 41.83723906731083 0.0
    vertex 31.950417374380805 37.75056361355154 2.5
    vertex 31.950417374380805 37.75056361355154 0.0
  endloop
endfacet
facet normal 1.0 -0.0 -0.0
  outer loop
    vertex 31.950417374380805 37.75056361355154 2.5
    vertex 31.950417374380805 41.83723906731083 0.0
    vertex 31.950417374380805 41.83723906731083 2.5
  endloop
endfacet
facet normal 0.0 -1.0 -0.0
  outer loop
    vertex 39.330901284849844 41.83723906731083 2.5
    vertex 31.950417374380805 41.83723906731083 0.0
    vertex 39.330901284849844 41.83723906731083 0.0
  endloop
endfacet
facet normal 0.0 -1.0 -0.0
  outer loop
    vertex 31.950417374380805 41.83723906731083 0.0
    vertex 39.330901284849844 41.83723906731083 2.5
    vertex 31.950417374380805 41.83723906731083 2.5
  endloop
endfacet
facet normal -1.0 0.0 0.0
  outer loop
    vertex 39.330901284849844 41.83723906731083 2.5
    vertex 39.330901284849844 40.57471495201459 0.0
    vertex 39.330901284849844 40.57471495201459 2.5
  endloop
endfacet
facet normal -1.0 0.0 0.0
  outer loop
    vertex 39.330901284849844 40.57471495201459 0.0
    vertex 39.330901284849844 41.83723906731083 2.5
    vertex 39.330901284849844 41.83723906731083 0.0
  endloop
endfacet
facet normal 0.0 0.0 -1.0
  outer loop
    vertex 42.018401284849844 32.68806361355154 3.1875
    vertex 35.393401284849844 31.06306361355154 3.1875
    vertex 35.393401284849844 32.68806361355154 3.1875
  endloop
endfacet
facet normal 0.0 0.0 -1.0
  outer loop
    vertex 35.393401284849844 31.06306361355154 3.1875
    vertex 42.018401284849844 32.68806361355154 3.1875
    vertex 42.018401284849844 31.06306361355154 3.1875
  endloop
endfacet
facet normal 0.0 1.0 0.0
  outer loop
    vertex 35.393401284849844 31.06306361355154 3.1875
    vertex 42.018401284849844 31.06306361355154 0.0
    vertex 35.393401284849844 31.06306361355154 0.0
  endloop
endfacet
facet normal 0.0 1.0 0.0
  outer loop
    vertex 42.018401284849844 31.06306361355154 0.0
    vertex 35.393401284849844 31.06306361355154 3.1875
    vertex 42.018401284849844 31.06306361355154 3.1875
  endloop
endfacet
facet normal 1.0 -0.0 -0.0
  outer loop
    vertex 35.393401284849844 32.68806361355154 0.0
    vertex 35.393401284849844 31.06306361355154 3.1875
    vertex 35.393401284849844 31.06306361355154 0.0
  endloop
endfacet
facet normal 1.0 -0.0 -0.0
  outer loop
    vertex 35.393401284849844 31.06306361355154 3.1875
    vertex 35.393401284849844 32.68806361355154 0.0
    vertex 35.393401284849844 32.68806361355154 3.1875
  endloop
endfacet
facet normal 0.0 -1.0 0.0
  outer loop
    vertex 43.205901284849844 36.56306361355154 4.5
    vertex 41.99517220104938 36.56306361355154 0.0
    vertex 43.205901284849844 36.56306361355154 0.0
  endloop
endfacet
facet normal 0.0 -1.0 0.0
  outer loop
    vertex 41.99517220104938 36.56306361355154 0.0
    vertex 43.205901284849844 36.56306361355154 4.5
    vertex 41.99517220104938 36.56306361355154 3.3125
  endloop
endfacet
facet normal 0.0 -1.0 0.0
  outer loop
    vertex 41.99517220104938 36.56306361355154 3.3125
    vertex 43.205901284849844 36.56306361355154 4.5
    vertex 39.330901284849844 36.56306361355154 3.3125
  endloop
endfacet
facet normal 0.0 -1.0 0.0
  outer loop
    vertex 39.330901284849844 36.56306361355154 3.3125
    vertex 43.205901284849844 36.56306361355154 4.5
    vertex 39.330901284849844 36.56306361355154 4.5
  endloop
endfacet
facet normal -1.0 0.0 0.0
  outer loop
    vertex 43.205901284849844 36.56306361355154 4.5
    vertex 43.205901284849844 32.68806361355154 0.0
    vertex 43.205901284849844 32.68806361355154 4.5
  endloop
endfacet
facet normal -1.0 0.0 0.0
  outer loop
    vertex 43.205901284849844 32.68806361355154 0.0
    vertex 43.205901284849844 36.56306361355154 4.5
    vertex 43.205901284849844 36.56306361355154 0.0
  endloop
endfacet
facet normal 0.0 0.0 -1.0
  outer loop
    vertex 43.205901284849844 36.56306361355154 4.5
    vertex 39.330901284849844 32.68806361355154 4.5
    vertex 39.330901284849844 36.56306361355154 4.5
  endloop
endfacet
facet normal 0.0 0.0 -1.0
  outer loop
    vertex 39.330901284849844 32.68806361355154 4.5
    vertex 43.205901284849844 36.56306361355154 4.5
    vertex 43.205901284849844 32.68806361355154 4.5
  endloop
endfacet
facet normal 0.0 -1.0 0.0
  outer loop
    vertex 41.99517220104938 40.57471495201459 3.3125
    vertex 39.330901284849844 40.57471495201459 0.0
    vertex 41.99517220104938 40.57471495201459 0.0
  endloop
endfacet
facet normal 0.0 -1.0 0.0
  outer loop
    vertex 39.330901284849844 40.57471495201459 0.0
    vertex 41.99517220104938 40.57471495201459 3.3125
    vertex 39.330901284849844 40.57471495201459 2.5
  endloop
endfacet
facet normal 0.0 -1.0 0.0
  outer loop
    vertex 39.330901284849844 40.57471495201459 2.5
    vertex 41.99517220104938 40.57471495201459 3.3125
    vertex 39.330901284849844 40.57471495201459 3.3125
  endloop
endfacet
facet normal -1.0 -0.0 -0.0
  outer loop
    vertex 41.99517220104938 40.57471495201459 3.3125
    vertex 41.99517220104938 36.56306361355154 0.0
    vertex 41.99517220104938 36.56306361355154 3.3125
  endloop
endfacet
facet normal -1.0 -0.0 -0.0
  outer loop
    vertex 41.99517220104938 36.56306361355154 0.0
    vertex 41.99517220104938 40.57471495201459 3.3125
    vertex 41.99517220104938 40.57471495201459 0.0
  endloop
endfacet
facet normal 0.0 0.0 -1.0
  outer loop
    vertex 41.99517220104938 40.57471495201459 3.3125
    vertex 39.330901284849844 37.75056361355154 3.3125
    vertex 39.330901284849844 40.57471495201459 3.3125
  endloop
endfacet
facet normal 0.0 0.0 -1.0
  outer loop
    vertex 39.330901284849844 37.75056361355154 3.3125
    vertex 41.99517220104938 40.57471495201459 3.3125
    vertex 39.330901284849844 36.56306361355154 3.3125
  endloop
endfacet
facet normal 0.0 0.0 -1.0
  outer loop
    vertex 39.330901284849844 36.56306361355154 3.3125
    vertex 41.99517220104938 40.57471495201459 3.3125
    vertex 41.99517220104938 36.56306361355154 3.3125
  endloop
endfacet
facet normal 1.0 -0.0 -0.0
  outer loop
    vertex 39.330901284849844 40.57471495201459 2.5
    vertex 39.330901284849844 37.75056361355154 3.3125
    vertex 39.330901284849844 37.75056361355154 2.5
  endloop
endfacet
facet normal 1.0 -0.0 -0.0
  outer loop
    vertex 39.330901284849844 37.75056361355154 3.3125
    vertex 39.330901284849844 40.57471495201459 2.5
    vertex 39.330901284849844 40.57471495201459 3.3125
  endloop
endfacet
facet normal 0.0 0.0 -1.0
  outer loop
    vertex 43.205901284849844 36.56306361355154 0.0
    vertex 42.018401284849844 32.68806361355154 0.0
    vertex 41.99517220104938 36.56306361355154 0.0
  endloop
endfacet
facet normal 0.0 0.0 -1.0
  outer loop
    vertex 42.018401284849844 32.68806361355154 0.0
    vertex 43.205901284849844 36.56306361355154 0.0
    vertex 43.205901284849844 32.68806361355154 0.0
  endloop
endfacet
facet normal 0.0 0.0 -1.0
  outer loop
    vertex 39.330901284849844 41.83723906731083 0.0
    vertex 31.950417374380805 37.75056361355154 0.0
    vertex 31.950417374380805 41.83723906731083 0.0
  endloop
endfacet
facet normal 0.0 0.0 -1.0
  outer loop
    vertex 31.950417374380805 37.75056361355154 0.0
    vertex 39.330901284849844 41.83723906731083 0.0
    vertex 34.268401284849844 37.75056361355154 0.0
  endloop
endfacet
facet normal 0.0 0.0 -1.0
  outer loop
    vertex 34.268401284849844 37.75056361355154 0.0
    vertex 39.330901284849844 41.83723906731083 0.0
    vertex 34.268401284849844 32.68806361355154 0.0
  endloop
endfacet
facet normal 0.0 0.0 -1.0
  outer loop
    vertex 34.268401284849844 32.68806361355154 0.0
    vertex 39.330901284849844 41.83723906731083 0.0
    vertex 35.393401284849844 32.68806361355154 0.0
  endloop
endfacet
facet normal 0.0 0.0 -1.0
  outer loop
    vertex 35.393401284849844 32.68806361355154 0.0
    vertex 39.330901284849844 41.83723906731083 0.0
    vertex 35.393401284849844 31.06306361355154 0.0
  endloop
endfacet
facet normal 0.0 0.0 -1.0
  outer loop
    vertex 35.393401284849844 31.06306361355154 0.0
    vertex 39.330901284849844 41.83723906731083 0.0
    vertex 39.330901284849844 40.57471495201459 0.0
  endloop
endfacet
facet normal 0.0 0.0 -1.0
  outer loop
    vertex 35.393401284849844 31.06306361355154 0.0
    vertex 39.330901284849844 40.57471495201459 0.0
    vertex 42.018401284849844 31.06306361355154 0.0
  endloop
endfacet
facet normal 0.0 0.0 -1.0
  outer loop
    vertex 42.018401284849844 31.06306361355154 0.0
    vertex 39.330901284849844 40.57471495201459 0.0
    vertex 41.99517220104938 36.56306361355154 0.0
  endloop
endfacet
facet normal 0.0 0.0 -1.0
  outer loop
    vertex 41.99517220104938 36.56306361355154 0.0
    vertex 39.330901284849844 40.57471495201459 0.0
    vertex 41.99517220104938 40.57471495201459 0.0
  endloop
endfacet
facet normal 0.0 0.0 -1.0
  outer loop
    vertex 42.018401284849844 31.06306361355154 0.0
    vertex 41.99517220104938 36.56306361355154 0.0
    vertex 42.018401284849844 32.68806361355154 0.0
  endloop
endfacet
facet normal 0.0 0.0 -1.0
  outer loop
    vertex 34.268401284849844 37.75056361355154 3.875
    vertex 30.143401284849844 29.00056361355154 3.875
    vertex 30.143401284849844 37.75056361355154 3.875
  endloop
endfacet
facet normal 0.0 0.0 -1.0
  outer loop
    vertex 30.143401284849844 29.00056361355154 3.875
    vertex 34.268401284849844 37.75056361355154 3.875
    vertex 34.268401284849844 29.00056361355154 3.875
  endloop
endfacet
facet normal 0.0 0.0 -1.0
  outer loop
    vertex 34.268401284849844 29.00056361355154 3.875
    vertex 34.268401284849844 37.75056361355154 3.875
    vertex 34.268401284849844 32.68806361355154 3.875
  endloop
endfacet
facet normal -1.0 0.0 0.0
  outer loop
    vertex 34.268401284849844 32.68806361355154 3.875
    vertex 34.268401284849844 29.00056361355154 0.0
    vertex 34.268401284849844 29.00056361355154 3.875
  endloop
endfacet
facet normal -1.0 0.0 0.0
  outer loop
    vertex 34.268401284849844 29.00056361355154 0.0
    vertex 34.268401284849844 32.68806361355154 3.875
    vertex 34.268401284849844 32.68806361355154 0.0
  endloop
endfacet
facet normal 0.0 1.0 0.0
  outer loop
    vertex 30.143401284849844 29.00056361355154 3.875
    vertex 34.268401284849844 29.00056361355154 0.0
    vertex 30.143401284849844 29.00056361355154 0.0
  endloop
endfacet
facet normal 0.0 1.0 0.0
  outer loop
    vertex 34.268401284849844 29.00056361355154 0.0
    vertex 30.143401284849844 29.00056361355154 3.875
    vertex 34.268401284849844 29.00056361355154 3.875
  endloop
endfacet
facet normal 1.0 -0.0 -0.0
  outer loop
    vertex 30.143401284849844 37.75056361355154 0.0
    vertex 30.143401284849844 29.00056361355154 3.875
    vertex 30.143401284849844 29.00056361355154 0.0
  endloop
endfacet
facet normal 1.0 -0.0 -0.0
  outer loop
    vertex 30.143401284849844 29.00056361355154 3.875
    vertex 30.143401284849844 37.75056361355154 0.0
    vertex 30.143401284849844 37.75056361355154 3.875
  endloop
endfacet
facet normal 0.0 -1.0 0.0
  outer loop
    vertex 39.330901284849844 37.75056361355154 3.3125
    vertex 34.268401284849844 37.75056361355154 2.5
    vertex 39.330901284849844 37.75056361355154 2.5
  endloop
endfacet
facet normal 0.0 -1.0 0.0
  outer loop
    vertex 34.268401284849844 37.75056361355154 2.5
    vertex 39.330901284849844 37.75056361355154 3.3125
    vertex 31.950417374380805 37.75056361355154 2.5
  endloop
endfacet
facet normal 0.0 -1.0 0.0
  outer loop
    vertex 39.330901284849844 37.75056361355154 6.3125
    vertex 34.268401284849844 37.75056361355154 3.875
    vertex 39.330901284849844 37.75056361355154 3.3125
  endloop
endfacet
facet normal 0.0 -1.0 0.0
  outer loop
    vertex 34.268401284849844 37.75056361355154 3.875
    vertex 39.330901284849844 37.75056361355154 6.3125
    vertex 34.268401284849844 37.75056361355154 6.3125
  endloop
endfacet
facet normal 0.0 -1.0 0.0
  outer loop
    vertex 31.950417374380805 37.75056361355154 2.5
    vertex 30.143401284849844 37.75056361355154 0.0
    vertex 31.950417374380805 37.75056361355154 0.0
  endloop
endfacet
facet normal 0.0 -1.0 0.0
  outer loop
    vertex 30.143401284849844 37.75056361355154 0.0
    vertex 31.950417374380805 37.75056361355154 2.5
    vertex 30.143401284849844 37.75056361355154 3.875
  endloop
endfacet
facet normal 0.0 -1.0 0.0
  outer loop
    vertex 30.143401284849844 37.75056361355154 3.875
    vertex 31.950417374380805 37.75056361355154 2.5
    vertex 39.330901284849844 37.75056361355154 3.3125
  endloop
endfacet
facet normal 0.0 -1.0 0.0
  outer loop
    vertex 30.143401284849844 37.75056361355154 3.875
    vertex 39.330901284849844 37.75056361355154 3.3125
    vertex 34.268401284849844 37.75056361355154 3.875
  endloop
endfacet
facet normal 0.9978589232386037 -0.06540312923014273 0.0
  outer loop
    vertex 31.437499999999996 80.0 -4.0625
    vertex 31.168547829439163 75.89658283208213 0.0
    vertex 31.168547829439163 75.89658283208213 -4.0625
  endloop
endfacet
facet normal 0.9978589232386037 -0.06540312923014273 0.0
  outer loop
    vertex 31.168547829439163 75.89658283208213 0.0
    vertex 31.437499999999996 80.0 -4.0625
    vertex 31.437499999999996 80.0 0.0
  endloop
endfacet
facet normal 0.9807852804032307 -0.19509032201612786 0.0
  outer loop
    vertex 31.168547829439163 75.89658283208213 -4.0625
    vertex 30.366293163962585 71.86337626958951 0.0
    vertex 30.366293163962585 71.86337626958951 -4.0625
  endloop
endfacet
facet normal 0.9807852804032307 -0.19509032201612786 0.0
  outer loop
    vertex 30.366293163962585 71.86337626958951 0.0
    vertex 31.168547829439163 75.89658283208213 -4.0625
    vertex 31.168547829439163 75.89658283208213 0.0
  endloop
endfacet
facet normal 0.9469301294951056 -0.3214394653031617 0.0
  outer loop
    vertex 30.366293163962585 71.86337626958951 -4.0625
    vertex 29.044462803323576 67.96938959502249 0.0
    vertex 29.044462803323576 67.96938959502249 -4.0625
  endloop
endfacet
facet normal 0.9469301294951056 -0.3214394653031617 0.0
  outer loop
    vertex 29.044462803323576 67.96938959502249 0.0
    vertex 30.366293163962585 71.86337626958951 -4.0625
    vertex 30.366293163962585 71.86337626958951 0.0
  endloop
endfacet
facet normal 0.8968727415326884 -0.44228869021900125 0.0
  outer loop
    vertex 29.044462803323576 67.96938959502249 -4.0625
    vertex 27.22567363147329 64.28125 0.0
    vertex 27.22567363147329 64.28125 -4.0625
  endloop
endfacet
facet normal 0.8968727415326884 -0.44228869021900125 0.0
  outer loop
    vertex 27.22567363147329 64.28125 0.0
    vertex 29.044462803323576 67.96938959502249 -4.0625
    vertex 29.044462803323576 67.96938959502249 0.0
  endloop
endfacet
facet normal 0.8314696123025449 -0.555570233019603 0.0
  outer loop
    vertex 27.22567363147329 64.28125 -4.0625
    vertex 24.9410456354057 60.862062575538346 0.0
    vertex 24.9410456354057 60.862062575538346 -4.0625
  endloop
endfacet
facet normal 0.8314696123025449 -0.555570233019603 0.0
  outer loop
    vertex 24.9410456354057 60.862062575538346 0.0
    vertex 27.22567363147329 64.28125 -4.0625
    vertex 27.22567363147329 64.28125 0.0
  endloop
endfacet
facet normal 0.7518398074789782 -0.6593458151000682 0.0
  outer loop
    vertex 24.9410456354057 60.862062575538346 -4.0625
    vertex 22.229669433552086 57.77033056644791 0.0
    vertex 22.229669433552086 57.77033056644791 -4.0625
  endloop
endfacet
facet normal 0.7518398074789782 -0.6593458151000682 0.0
  outer loop
    vertex 22.229669433552086 57.77033056644791 0.0
    vertex 24.9410456354057 60.862062575538346 -4.0625
    vertex 24.9410456354057 60.862062575538346 0.0
  endloop
endfacet
facet normal 0.6593458151000676 -0.7518398074789785 0.0
  outer loop
    vertex 22.229669433552086 57.77033056644791 0.0
    vertex 19.13793742446165 55.0589543645943 -4.0625
    vertex 22.229669433552086 57.77033056644791 -4.0625
  endloop
endfacet
facet normal 0.6593458151000676 -0.7518398074789785 0.0
  outer loop
    vertex 19.13793742446165 55.0589543645943 -4.0625
    vertex 22.229669433552086 57.77033056644791 0.0
    vertex 19.13793742446165 55.0589543645943 0.0
  endloop
endfacet
facet normal 0.5555702330196025 -0.8314696123025451 0.0
  outer loop
    vertex 19.13793742446165 55.0589543645943 0.0
    vertex 15.718749999999998 52.774326368526715 -4.0625
    vertex 19.13793742446165 55.0589543645943 -4.0625
  endloop
endfacet
facet normal 0.5555702330196025 -0.8314696123025451 0.0
  outer loop
    vertex 15.718749999999998 52.774326368526715 -4.0625
    vertex 19.13793742446165 55.0589543645943 0.0
    vertex 15.718749999999998 52.774326368526715 0.0
  endloop
endfacet
facet normal 0.4422886902190008 -0.8968727415326885 0.0
  outer loop
    vertex 15.718749999999998 52.774326368526715 0.0
    vertex 12.03061040497751 50.95553719667643 -4.0625
    vertex 15.718749999999998 52.774326368526715 -4.0625
  endloop
endfacet
facet normal 0.4422886902190008 -0.8968727415326885 0.0
  outer loop
    vertex 12.03061040497751 50.95553719667643 -4.0625
    vertex 15.718749999999998 52.774326368526715 0.0
    vertex 12.03061040497751 50.95553719667643 0.0
  endloop
endfacet
facet normal 0.3214394653031626 -0.9469301294951054 0.0
  outer loop
    vertex 12.03061040497751 50.95553719667643 0.0
    vertex 8.136623730410495 49.63370683603742 -4.0625
    vertex 12.03061040497751 50.95553719667643 -4.0625
  endloop
endfacet
facet normal 0.3214394653031626 -0.9469301294951054 0.0
  outer loop
    vertex 8.136623730410495 49.63370683603742 -4.0625
    vertex 12.03061040497751 50.95553719667643 0.0
    vertex 8.136623730410495 49.63370683603742 0.0
  endloop
endfacet
facet normal 0.1950903220161286 -0.9807852804032304 0.0
  outer loop
    vertex 8.136623730410495 49.63370683603742 0.0
    vertex 4.103417167917871 48.83145217056084 -4.0625
    vertex 8.136623730410495 49.63370683603742 -4.0625
  endloop
endfacet
facet normal 0.1950903220161286 -0.9807852804032304 0.0
  outer loop
    vertex 4.103417167917871 48.83145217056084 -4.0625
    vertex 8.136623730410495 49.63370683603742 0.0
    vertex 4.103417167917871 48.83145217056084 0.0
  endloop
endfacet
facet normal 0.06540312923014356 -0.9978589232386036 0.0
  outer loop
    vertex 4.103417167917871 48.83145217056084 0.0
    vertex 0.0 48.5625 -4.0625
    vertex 4.103417167917871 48.83145217056084 -4.0625
  endloop
endfacet
facet normal 0.06540312923014356 -0.9978589232386036 0.0
  outer loop
    vertex 0.0 48.5625 -4.0625
    vertex 4.103417167917871 48.83145217056084 0.0
    vertex 0.0 48.5625 0.0
  endloop
endfacet
facet normal -0.7071067811865476 -0.7071067811865476 -1.3623789854325446e-17
  outer loop
    vertex -11.252630939297227 59.81513093929723 20.0
    vertex 0.0 48.5625 0.0
    vertex 0.0 48.5625 20.0
  endloop
endfacet
facet normal -0.7071067811865476 -0.7071067811865476 -1.3623789854325446e-17
  outer loop
    vertex 0.0 48.5625 0.0
    vertex -11.252630939297227 59.81513093929723 20.0
    vertex 0.0 48.5625 -4.0625
  endloop
endfacet
facet normal -0.7071067811865476 -0.7071067811865476 -1.3623789854325446e-17
  outer loop
    vertex 0.0 48.5625 -4.0625
    vertex -11.252630939297227 59.81513093929723 20.0
    vertex -11.252630939297227 59.81513093929723 -4.0625
  endloop
endfacet
facet normal -1.0 0.0 0.0
  outer loop
    vertex 42.018401284849844 32.68806361355154 3.1875
    vertex 42.018401284849844 31.06306361355154 0.0
    vertex 42.018401284849844 31.06306361355154 3.1875
  endloop
endfacet
facet normal -1.0 0.0 0.0
  outer loop
    vertex 42.018401284849844 31.06306361355154 0.0
    vertex 42.018401284849844 32.68806361355154 3.1875
    vertex 42.018401284849844 32.68806361355154 0.0
  endloop
endfacet
facet normal -0.0 1.0 -0.0
  outer loop
    vertex 34.268401284849844 32.68806361355154 3.875
    vertex 35.393401284849844 32.68806361355154 0.0
    vertex 34.268401284849844 32.68806361355154 0.0
  endloop
endfacet
facet normal -0.0 1.0 -0.0
  outer loop
    vertex 35.393401284849844 32.68806361355154 0.0
    vertex 34.268401284849844 32.68806361355154 3.875
    vertex 35.393401284849844 32.68806361355154 3.1875
  endloop
endfacet
facet normal -0.0 1.0 -0.0
  outer loop
    vertex 35.393401284849844 32.68806361355154 3.1875
    vertex 34.268401284849844 32.68806361355154 3.875
    vertex 42.018401284849844 32.68806361355154 3.1875
  endloop
endfacet
facet normal -0.0 1.0 -0.0
  outer loop
    vertex 34.268401284849844 32.68806361355154 6.3125
    vertex 39.330901284849844 32.68806361355154 4.5
    vertex 34.268401284849844 32.68806361355154 3.875
  endloop
endfacet
facet normal -0.0 1.0 -0.0
  outer loop
    vertex 39.330901284849844 32.68806361355154 4.5
    vertex 34.268401284849844 32.68806361355154 6.3125
    vertex 39.330901284849844 32.68806361355154 6.3125
  endloop
endfacet
facet normal -0.0 1.0 -0.0
  outer loop
    vertex 42.018401284849844 32.68806361355154 3.1875
    vertex 43.205901284849844 32.68806361355154 0.0
    vertex 42.018401284849844 32.68806361355154 0.0
  endloop
endfacet
facet normal -0.0 1.0 -0.0
  outer loop
    vertex 43.205901284849844 32.68806361355154 0.0
    vertex 42.018401284849844 32.68806361355154 3.1875
    vertex 43.205901284849844 32.68806361355154 4.5
  endloop
endfacet
facet normal -0.0 1.0 -0.0
  outer loop
    vertex 43.205901284849844 32.68806361355154 4.5
    vertex 42.018401284849844 32.68806361355154 3.1875
    vertex 34.268401284849844 32.68806361355154 3.875
  endloop
endfacet
facet normal -0.0 1.0 -0.0
  outer loop
    vertex 43.205901284849844 32.68806361355154 4.5
    vertex 34.268401284849844 32.68806361355154 3.875
    vertex 39.330901284849844 32.68806361355154 4.5
  endloop
endfacet
facet normal 0.0 0.0 -1.0
  outer loop
    vertex -11.252630939297223 80.0 -4.0625
    vertex 0.0 48.5625 -4.0625
    vertex -11.252630939297227 59.81513093929723 -4.0625
  endloop
endfacet
facet normal 0.0 0.0 -1.0
  outer loop
    vertex 0.0 48.5625 -4.0625
    vertex -11.252630939297223 80.0 -4.0625
    vertex 31.437499999999996 80.0 -4.0625
  endloop
endfacet
facet normal 0.0 0.0 -1.0
  outer loop
    vertex 0.0 48.5625 -4.0625
    vertex 31.437499999999996 80.0 -4.0625
    vertex 4.103417167917871 48.83145217056084 -4.0625
  endloop
endfacet
facet normal 0.0 0.0 -1.0
  outer loop
    vertex 4.103417167917871 48.83145217056084 -4.0625
    vertex 31.437499999999996 80.0 -4.0625
    vertex 8.136623730410495 49.63370683603742 -4.0625
  endloop
endfacet
facet normal 0.0 0.0 -1.0
  outer loop
    vertex 8.136623730410495 49.63370683603742 -4.0625
    vertex 31.437499999999996 80.0 -4.0625
    vertex 12.03061040497751 50.95553719667643 -4.0625
  endloop
endfacet
facet normal 0.0 0.0 -1.0
  outer loop
    vertex 12.03061040497751 50.95553719667643 -4.0625
    vertex 31.437499999999996 80.0 -4.0625
    vertex 15.718749999999998 52.774326368526715 -4.0625
  endloop
endfacet
facet normal 0.0 0.0 -1.0
  outer loop
    vertex 15.718749999999998 52.774326368526715 -4.0625
    vertex 31.437499999999996 80.0 -4.0625
    vertex 19.13793742446165 55.0589543645943 -4.0625
  endloop
endfacet
facet normal 0.0 0.0 -1.0
  outer loop
    vertex 19.13793742446165 55.0589543645943 -4.0625
    vertex 31.437499999999996 80.0 -4.0625
    vertex 22.229669433552086 57.77033056644791 -4.0625
  endloop
endfacet
facet normal 0.0 0.0 -1.0
  outer loop
    vertex 22.229669433552086 57.77033056644791 -4.0625
    vertex 31.437499999999996 80.0 -4.0625
    vertex 24.9410456354057 60.862062575538346 -4.0625
  endloop
endfacet
facet normal 0.0 0.0 -1.0
  outer loop
    vertex 24.9410456354057 60.862062575538346 -4.0625
    vertex 31.437499999999996 80.0 -4.0625
    vertex 27.22567363147329 64.28125 -4.0625
  endloop
endfacet
facet normal 0.0 0.0 -1.0
  outer loop
    vertex 27.22567363147329 64.28125 -4.0625
    vertex 31.437499999999996 80.0 -4.0625
    vertex 29.044462803323576 67.96938959502249 -4.0625
  endloop
endfacet
facet normal 0.0 0.0 -1.0
  outer loop
    vertex 29.044462803323576 67.96938959502249 -4.0625
    vertex 31.437499999999996 80.0 -4.0625
    vertex 30.366293163962585 71.86337626958951 -4.0625
  endloop
endfacet
facet normal 0.0 0.0 -1.0
  outer loop
    vertex 30.366293163962585 71.86337626958951 -4.0625
    vertex 31.437499999999996 80.0 -4.0625
    vertex 31.168547829439163 75.89658283208213 -4.0625
  endloop
endfacet
facet normal -1.0 1.7600875527685027e-16 0.0
  outer loop
    vertex -11.252630939297223 80.0 20.0
    vertex -11.252630939297227 59.81513093929723 -4.0625
    vertex -11.252630939297227 59.81513093929723 20.0
  endloop
endfacet
facet normal -1.0 1.7600875527685027e-16 0.0
  outer loop
    vertex -11.252630939297227 59.81513093929723 -4.0625
    vertex -11.252630939297223 80.0 20.0
    vertex -11.252630939297223 80.0 -4.0625
  endloop
endfacet
facet normal 0.0 -1.0 0.0
  outer loop
    vertex 6.562500000000008 15.000000000000004 4.4375
    vertex 0.0 15.000000000000004 0.0
    vertex 6.562500000000008 15.000000000000004 0.0
  endloop
endfacet
facet normal 0.0 -1.0 0.0
  outer loop
    vertex 0.0 15.000000000000004 0.0
    vertex 6.562500000000008 15.000000000000004 4.4375
    vertex 0.0 15.000000000000004 4.4375
  endloop
endfacet
facet normal -1.0 0.0 0.0
  outer loop
    vertex 15.000000000000004 4.312500000000001 4.4375
    vertex 15.000000000000004 0.0 0.0
    vertex 15.000000000000004 0.0 4.4375
  endloop
endfacet
facet normal -1.0 0.0 0.0
  outer loop
    vertex 15.000000000000004 0.0 0.0
    vertex 15.000000000000004 4.312500000000001 4.4375
    vertex 15.000000000000004 6.562500000000012 0.0
  endloop
endfacet
facet normal -1.0 0.0 0.0
  outer loop
    vertex 15.000000000000004 6.562500000000012 0.0
    vertex 15.000000000000004 4.312500000000001 4.4375
    vertex 15.000000000000004 6.562500000000012 4.4375
  endloop
endfacet
facet normal -0.7071067811865468 -0.7071067811865483 0.0
  outer loop
    vertex 15.000000000000004 6.562500000000012 4.4375
    vertex 6.562500000000008 15.000000000000004 0.0
    vertex 15.000000000000004 6.562500000000012 0.0
  endloop
endfacet
facet normal -0.7071067811865468 -0.7071067811865483 0.0
  outer loop
    vertex 6.562500000000008 15.000000000000004 0.0
    vertex 15.000000000000004 6.562500000000012 4.4375
    vertex 6.562500000000008 15.000000000000004 4.4375
  endloop
endfacet
facet normal 0.0 -1.0 0.0
  outer loop
    vertex 80.0 0.0 20.0
    vertex 63.418064682203365 0.0 0.0
    vertex 80.0 0.0 0.0
  endloop
endfacet
facet normal 0.0 -1.0 0.0
  outer loop
    vertex 63.418064682203365 0.0 0.0
    vertex 80.0 0.0 20.0
    vertex 63.418064682203365 0.0 5.5625
  endloop
endfacet
facet normal 0.0 -1.0 0.0
  outer loop
    vertex 63.418064682203365 0.0 5.5625
    vertex 80.0 0.0 20.0
    vertex 60.961756222112946 0.0 5.5625
  endloop
endfacet
facet normal 0.0 -1.0 0.0
  outer loop
    vertex 60.961756222112946 0.0 5.5625
    vertex 80.0 0.0 20.0
    vertex 57.610735004592655 0.0 8.995838767348637
  endloop
endfacet
facet normal 0.0 -1.0 0.0
  outer loop
    vertex 60.961756222112946 0.0 5.5625
    vertex 57.610735004592655 0.0 8.995838767348637
    vertex 38.80434726661556 0.0 5.5625
  endloop
endfacet
facet normal 0.0 -1.0 0.0
  outer loop
    vertex 38.80434726661556 0.0 5.5625
    vertex 57.610735004592655 0.0 8.995838767348637
    vertex 36.480564682203365 0.0 5.5625
  endloop
endfacet
facet normal 0.0 -1.0 0.0
  outer loop
    vertex 57.610735004592655 0.0 8.995838767348637
    vertex 80.0 0.0 20.0
    vertex 57.610735004592655 0.0 15.620838767348637
  endloop
endfacet
facet normal 0.0 -1.0 0.0
  outer loop
    vertex 57.610735004592655 0.0 15.620838767348637
    vertex 80.0 0.0 20.0
    vertex 41.985735004592655 0.0 15.620838767348637
  endloop
endfacet
facet normal 0.0 -1.0 0.0
  outer loop
    vertex 36.480564682203365 0.0 5.5625
    vertex 15.000000000000004 0.0 0.0
    vertex 36.480564682203365 0.0 0.0
  endloop
endfacet
facet normal 0.0 -1.0 0.0
  outer loop
    vertex 15.000000000000004 0.0 0.0
    vertex 36.480564682203365 0.0 5.5625
    vertex 15.000000000000004 0.0 4.4375
  endloop
endfacet
facet normal 0.0 -1.0 0.0
  outer loop
    vertex 15.000000000000004 0.0 4.4375
    vertex 36.480564682203365 0.0 5.5625
    vertex 0.0 0.0 4.4375
  endloop
endfacet
facet normal 0.0 -1.0 0.0
  outer loop
    vertex 0.0 0.0 4.4375
    vertex 36.480564682203365 0.0 5.5625
    vertex 0.0 0.0 20.0
  endloop
endfacet
facet normal 0.0 -1.0 0.0
  outer loop
    vertex 0.0 0.0 20.0
    vertex 36.480564682203365 0.0 5.5625
    vertex 41.985735004592655 0.0 8.995838767348637
  endloop
endfacet
facet normal 0.0 -1.0 0.0
  outer loop
    vertex 41.985735004592655 0.0 8.995838767348637
    vertex 36.480564682203365 0.0 5.5625
    vertex 57.610735004592655 0.0 8.995838767348637
  endloop
endfacet
facet normal 0.0 -1.0 0.0
  outer loop
    vertex 0.0 0.0 20.0
    vertex 41.985735004592655 0.0 8.995838767348637
    vertex 41.985735004592655 0.0 15.620838767348637
  endloop
endfacet
facet normal 0.0 -1.0 0.0
  outer loop
    vertex 0.0 0.0 20.0
    vertex 41.985735004592655 0.0 15.620838767348637
    vertex 80.0 0.0 20.0
  endloop
endfacet
facet normal 0.0 -1.0 0.0
  outer loop
    vertex 60.961756222112946 0.0 5.5625
    vertex 38.80434726661556 0.0 2.75
    vertex 60.961756222112946 0.0 2.75
  endloop
endfacet
facet normal 0.0 -1.0 0.0
  outer loop
    vertex 38.80434726661556 0.0 2.75
    vertex 60.961756222112946 0.0 5.5625
    vertex 38.80434726661556 0.0 5.5625
  endloop
endfacet
facet normal -1.0 0.0 0.0
  outer loop
    vertex 0.0 48.5625 20.0
    vertex 0.0 0.0 4.4375
    vertex 0.0 0.0 20.0
  endloop
endfacet
facet normal -1.0 0.0 0.0
  outer loop
    vertex 0.0 0.0 4.4375
    vertex 0.0 48.5625 20.0
    vertex 0.0 15.000000000000004 4.4375
  endloop
endfacet
facet normal -1.0 0.0 0.0
  outer loop
    vertex 0.0 15.000000000000004 4.4375
    vertex 0.0 48.5625 20.0
    vertex 0.0 15.000000000000004 0.0
  endloop
endfacet
facet normal -1.0 0.0 0.0
  outer loop
    vertex 0.0 15.000000000000004 0.0
    vertex 0.0 48.5625 20.0
    vertex 0.0 48.5625 0.0
  endloop
endfacet
facet normal 0.0 0.0 -1.0
  outer loop
    vertex 43.205901284849844 32.68806361355154 0.0
    vertex 42.018401284849844 31.06306361355154 0.0
    vertex 42.018401284849844 32.68806361355154 0.0
  endloop
endfacet
facet normal 0.0 0.0 -1.0
  outer loop
    vertex 80.0 80.0 0.0
    vertex 31.950417374380805 41.83723906731083 0.0
    vertex 31.437499999999996 80.0 0.0
  endloop
endfacet
facet normal 0.0 0.0 -1.0
  outer loop
    vertex 31.950417374380805 41.83723906731083 0.0
    vertex 80.0 80.0 0.0
    vertex 39.330901284849844 41.83723906731083 0.0
  endloop
endfacet
facet normal 0.0 0.0 -1.0
  outer loop
    vertex 39.330901284849844 41.83723906731083 0.0
    vertex 80.0 80.0 0.0
    vertex 39.330901284849844 40.57471495201459 0.0
  endloop
endfacet
facet normal 0.0 0.0 -1.0
  outer loop
    vertex 39.330901284849844 40.57471495201459 0.0
    vertex 80.0 80.0 0.0
    vertex 41.99517220104938 40.57471495201459 0.0
  endloop
endfacet
facet normal 0.0 0.0 -1.0
  outer loop
    vertex 41.99517220104938 40.57471495201459 0.0
    vertex 80.0 80.0 0.0
    vertex 41.99517220104938 36.56306361355154 0.0
  endloop
endfacet
facet normal 0.0 0.0 -1.0
  outer loop
    vertex 41.99517220104938 36.56306361355154 0.0
    vertex 80.0 80.0 0.0
    vertex 43.205901284849844 36.56306361355154 0.0
  endloop
endfacet
facet normal 0.0 0.0 -1.0
  outer loop
    vertex 43.205901284849844 36.56306361355154 0.0
    vertex 80.0 80.0 0.0
    vertex 43.205901284849844 32.68806361355154 0.0
  endloop
endfacet
facet normal 0.0 0.0 -1.0
  outer loop
    vertex 43.205901284849844 32.68806361355154 0.0
    vertex 80.0 80.0 0.0
    vertex 63.418064682203365 8.375 0.0
  endloop
endfacet
facet normal 0.0 0.0 -1.0
  outer loop
    vertex 63.418064682203365 8.375 0.0
    vertex 80.0 80.0 0.0
    vertex 63.418064682203365 0.0 0.0
  endloop
endfacet
facet normal 0.0 0.0 -1.0
  outer loop
    vertex 63.418064682203365 0.0 0.0
    vertex 80.0 80.0 0.0
    vertex 80.0 0.0 0.0
  endloop
endfacet
facet normal 0.0 0.0 -1.0
  outer loop
    vertex 35.393401284849844 32.68806361355154 0.0
    vertex 34.268401284849844 29.00056361355154 0.0
    vertex 34.268401284849844 32.68806361355154 0.0
  endloop
endfacet
facet normal 0.0 0.0 -1.0
  outer loop
    vertex 34.268401284849844 29.00056361355154 0.0
    vertex 35.393401284849844 32.68806361355154 0.0
    vertex 34.28379046010375 7.038154611749977 0.0
  endloop
endfacet
facet normal 0.0 0.0 -1.0
  outer loop
    vertex 34.28379046010375 7.038154611749977 0.0
    vertex 35.393401284849844 32.68806361355154 0.0
    vertex 34.99572002043251 6.491871846569728 0.0
  endloop
endfacet
facet normal 0.0 0.0 -1.0
  outer loop
    vertex 34.99572002043251 6.491871846569728 0.0
    vertex 35.393401284849844 32.68806361355154 0.0
    vertex 35.393401284849844 31.06306361355154 0.0
  endloop
endfacet
facet normal 0.0 0.0 -1.0
  outer loop
    vertex 34.99572002043251 6.491871846569728 0.0
    vertex 35.393401284849844 31.06306361355154 0.0
    vertex 35.54200278561276 5.77994228624097 0.0
  endloop
endfacet
facet normal 0.0 0.0 -1.0
  outer loop
    vertex 35.54200278561276 5.77994228624097 0.0
    vertex 35.393401284849844 31.06306361355154 0.0
    vertex 42.018401284849844 31.06306361355154 0.0
  endloop
endfacet
facet normal 0.0 0.0 -1.0
  outer loop
    vertex 35.54200278561276 5.77994228624097 0.0
    vertex 42.018401284849844 31.06306361355154 0.0
    vertex 36.480564682203365 8.375 0.0
  endloop
endfacet
facet normal 0.0 0.0 -1.0
  outer loop
    vertex 35.54200278561276 5.77994228624097 0.0
    vertex 36.480564682203365 8.375 0.0
    vertex 35.88541048797242 4.950882753780885 0.0
  endloop
endfacet
facet normal 0.0 0.0 -1.0
  outer loop
    vertex 35.88541048797242 4.950882753780885 0.0
    vertex 36.480564682203365 8.375 0.0
    vertex 36.00254046010375 4.061192286240971 0.0
  endloop
endfacet
facet normal 0.0 0.0 -1.0
  outer loop
    vertex 36.480564682203365 8.375 0.0
    vertex 42.018401284849844 31.06306361355154 0.0
    vertex 63.418064682203365 8.375 0.0
  endloop
endfacet
facet normal 0.0 0.0 -1.0
  outer loop
    vertex 63.418064682203365 8.375 0.0
    vertex 42.018401284849844 31.06306361355154 0.0
    vertex 43.205901284849844 32.68806361355154 0.0
  endloop
endfacet
facet normal 0.0 0.0 -1.0
  outer loop
    vertex 4.103417167917871 48.83145217056084 0.0
    vertex 0.0 15.000000000000004 0.0
    vertex 0.0 48.5625 0.0
  endloop
endfacet
facet normal 0.0 0.0 -1.0
  outer loop
    vertex 0.0 15.000000000000004 0.0
    vertex 4.103417167917871 48.83145217056084 0.0
    vertex 6.562500000000008 15.000000000000004 0.0
  endloop
endfacet
facet normal 0.0 0.0 -1.0
  outer loop
    vertex 6.562500000000008 15.000000000000004 0.0
    vertex 4.103417167917871 48.83145217056084 0.0
    vertex 8.136623730410495 49.63370683603742 0.0
  endloop
endfacet
facet normal 0.0 0.0 -1.0
  outer loop
    vertex 6.562500000000008 15.000000000000004 0.0
    vertex 8.136623730410495 49.63370683603742 0.0
    vertex 15.000000000000004 6.562500000000012 0.0
  endloop
endfacet
facet normal 0.0 0.0 -1.0
  outer loop
    vertex 15.000000000000004 6.562500000000012 0.0
    vertex 8.136623730410495 49.63370683603742 0.0
    vertex 12.03061040497751 50.95553719667643 0.0
  endloop
endfacet
facet normal 0.0 0.0 -1.0
  outer loop
    vertex 15.000000000000004 6.562500000000012 0.0
    vertex 12.03061040497751 50.95553719667643 0.0
    vertex 15.718749999999998 52.774326368526715 0.0
  endloop
endfacet
facet normal 0.0 0.0 -1.0
  outer loop
    vertex 15.000000000000004 6.562500000000012 0.0
    vertex 15.718749999999998 52.774326368526715 0.0
    vertex 15.000000000000004 0.0 0.0
  endloop
endfacet
facet normal 0.0 0.0 -1.0
  outer loop
    vertex 15.000000000000004 0.0 0.0
    vertex 15.718749999999998 52.774326368526715 0.0
    vertex 29.24467043223508 3.1715018187010573 0.0
  endloop
endfacet
facet normal 0.0 0.0 -1.0
  outer loop
    vertex 15.000000000000004 0.0 0.0
    vertex 29.24467043223508 3.1715018187010573 0.0
    vertex 29.588078134594742 2.3424422862409733 0.0
  endloop
endfacet
facet normal 0.0 0.0 -1.0
  outer loop
    vertex 15.000000000000004 0.0 0.0
    vertex 29.588078134594742 2.3424422862409733 0.0
    vertex 30.134360899774997 1.6305127259122143 0.0
  endloop
endfacet
facet normal 0.0 0.0 -1.0
  outer loop
    vertex 15.000000000000004 0.0 0.0
    vertex 30.134360899774997 1.6305127259122143 0.0
    vertex 30.846290460103752 1.0842299607319639 0.0
  endloop
endfacet
facet normal 0.0 0.0 -1.0
  outer loop
    vertex 15.000000000000004 0.0 0.0
    vertex 30.846290460103752 1.0842299607319639 0.0
    vertex 31.675349992563834 0.7408222583722996 0.0
  endloop
endfacet
facet normal 0.0 0.0 -1.0
  outer loop
    vertex 15.000000000000004 0.0 0.0
    vertex 31.675349992563834 0.7408222583722996 0.0
    vertex 36.480564682203365 0.0 0.0
  endloop
endfacet
facet normal 0.0 0.0 -1.0
  outer loop
    vertex 29.24467043223508 3.1715018187010573 0.0
    vertex 15.718749999999998 52.774326368526715 0.0
    vertex 19.13793742446165 55.0589543645943 0.0
  endloop
endfacet
facet normal 0.0 0.0 -1.0
  outer loop
    vertex 29.24467043223508 3.1715018187010573 0.0
    vertex 19.13793742446165 55.0589543645943 0.0
    vertex 29.127540460103752 4.0611922862409715 0.0
  endloop
endfacet
facet normal 0.0 0.0 -1.0
  outer loop
    vertex 29.127540460103752 4.0611922862409715 0.0
    vertex 19.13793742446165 55.0589543645943 0.0
    vertex 22.229669433552086 57.77033056644791 0.0
  endloop
endfacet
facet normal 0.0 0.0 -1.0
  outer loop
    vertex 29.127540460103752 4.0611922862409715 0.0
    vertex 22.229669433552086 57.77033056644791 0.0
    vertex 24.9410456354057 60.862062575538346 0.0
  endloop
endfacet
facet normal 0.0 0.0 -1.0
  outer loop
    vertex 29.127540460103752 4.0611922862409715 0.0
    vertex 24.9410456354057 60.862062575538346 0.0
    vertex 27.22567363147329 64.28125 0.0
  endloop
endfacet
facet normal 0.0 0.0 -1.0
  outer loop
    vertex 29.127540460103752 4.0611922862409715 0.0
    vertex 27.22567363147329 64.28125 0.0
    vertex 29.044462803323576 67.96938959502249 0.0
  endloop
endfacet
facet normal 0.0 0.0 -1.0
  outer loop
    vertex 36.480564682203365 0.0 0.0
    vertex 31.675349992563834 0.7408222583722996 0.0
    vertex 32.56504046010375 0.6236922862409711 0.0
  endloop
endfacet
facet normal 0.0 0.0 -1.0
  outer loop
    vertex 36.480564682203365 0.0 0.0
    vertex 32.56504046010375 0.6236922862409711 0.0
    vertex 33.454730927643666 0.7408222583722988 0.0
  endloop
endfacet
facet normal 0.0 0.0 -1.0
  outer loop
    vertex 36.480564682203365 0.0 0.0
    vertex 33.454730927643666 0.7408222583722988 0.0
    vertex 34.28379046010375 1.084229960731963 0.0
  endloop
endfacet
facet normal 0.0 0.0 -1.0
  outer loop
    vertex 36.480564682203365 0.0 0.0
    vertex 34.28379046010375 1.084229960731963 0.0
    vertex 34.99572002043251 1.6305127259122139 0.0
  endloop
endfacet
facet normal 0.0 0.0 -1.0
  outer loop
    vertex 36.480564682203365 0.0 0.0
    vertex 34.99572002043251 1.6305127259122139 0.0
    vertex 35.54200278561276 2.3424422862409706 0.0
  endloop
endfacet
facet normal 0.0 0.0 -1.0
  outer loop
    vertex 36.480564682203365 0.0 0.0
    vertex 35.54200278561276 2.3424422862409706 0.0
    vertex 35.88541048797242 3.171501818701055 0.0
  endloop
endfacet
facet normal 0.0 0.0 -1.0
  outer loop
    vertex 36.480564682203365 0.0 0.0
    vertex 35.88541048797242 3.171501818701055 0.0
    vertex 36.00254046010375 4.061192286240971 0.0
  endloop
endfacet
facet normal 0.0 0.0 -1.0
  outer loop
    vertex 36.480564682203365 0.0 0.0
    vertex 36.00254046010375 4.061192286240971 0.0
    vertex 36.480564682203365 8.375 0.0
  endloop
endfacet
facet normal 0.0 0.0 -1.0
  outer loop
    vertex 30.134360899774997 6.491871846569729 0.0
    vertex 30.143401284849844 29.00056361355154 0.0
    vertex 30.846290460103752 7.038154611749979 0.0
  endloop
endfacet
facet normal 0.0 0.0 -1.0
  outer loop
    vertex 30.143401284849844 29.00056361355154 0.0
    vertex 30.134360899774997 6.491871846569729 0.0
    vertex 30.143401284849844 37.75056361355154 0.0
  endloop
endfacet
facet normal 0.0 0.0 -1.0
  outer loop
    vertex 30.846290460103752 7.038154611749979 0.0
    vertex 30.143401284849844 29.00056361355154 0.0
    vertex 34.268401284849844 29.00056361355154 0.0
  endloop
endfacet
facet normal 0.0 0.0 -1.0
  outer loop
    vertex 30.846290460103752 7.038154611749979 0.0
    vertex 34.268401284849844 29.00056361355154 0.0
    vertex 31.675349992563838 7.381562314109643 0.0
  endloop
endfacet
facet normal 0.0 0.0 -1.0
  outer loop
    vertex 31.675349992563838 7.381562314109643 0.0
    vertex 34.268401284849844 29.00056361355154 0.0
    vertex 32.56504046010375 7.498692286240971 0.0
  endloop
endfacet
facet normal 0.0 0.0 -1.0
  outer loop
    vertex 32.56504046010375 7.498692286240971 0.0
    vertex 34.268401284849844 29.00056361355154 0.0
    vertex 33.454730927643666 7.381562314109642 0.0
  endloop
endfacet
facet normal 0.0 0.0 -1.0
  outer loop
    vertex 33.454730927643666 7.381562314109642 0.0
    vertex 34.268401284849844 29.00056361355154 0.0
    vertex 34.28379046010375 7.038154611749977 0.0
  endloop
endfacet
facet normal 0.0 0.0 -1.0
  outer loop
    vertex 30.366293163962585 71.86337626958951 0.0
    vertex 29.127540460103752 4.0611922862409715 0.0
    vertex 29.044462803323576 67.96938959502249 0.0
  endloop
endfacet
facet normal 0.0 0.0 -1.0
  outer loop
    vertex 29.127540460103752 4.0611922862409715 0.0
    vertex 30.366293163962585 71.86337626958951 0.0
    vertex 29.244670432235083 4.950882753780888 0.0
  endloop
endfacet
facet normal 0.0 0.0 -1.0
  outer loop
    vertex 29.244670432235083 4.950882753780888 0.0
    vertex 30.366293163962585 71.86337626958951 0.0
    vertex 29.588078134594745 5.779942286240972 0.0
  endloop
endfacet
facet normal 0.0 0.0 -1.0
  outer loop
    vertex 29.588078134594745 5.779942286240972 0.0
    vertex 30.366293163962585 71.86337626958951 0.0
    vertex 30.143401284849844 37.75056361355154 0.0
  endloop
endfacet
facet normal 0.0 0.0 -1.0
  outer loop
    vertex 29.588078134594745 5.779942286240972 0.0
    vertex 30.143401284849844 37.75056361355154 0.0
    vertex 30.134360899774997 6.491871846569729 0.0
  endloop
endfacet
facet normal 0.0 0.0 -1.0
  outer loop
    vertex 30.143401284849844 37.75056361355154 0.0
    vertex 30.366293163962585 71.86337626958951 0.0
    vertex 31.950417374380805 37.75056361355154 0.0
  endloop
endfacet
facet normal 0.0 0.0 -1.0
  outer loop
    vertex 31.950417374380805 37.75056361355154 0.0
    vertex 30.366293163962585 71.86337626958951 0.0
    vertex 31.168547829439163 75.89658283208213 0.0
  endloop
endfacet
facet normal 0.0 0.0 -1.0
  outer loop
    vertex 31.950417374380805 37.75056361355154 0.0
    vertex 31.168547829439163 75.89658283208213 0.0
    vertex 31.437499999999996 80.0 0.0
  endloop
endfacet
facet normal 0.0 0.0 -1.0
  outer loop
    vertex 31.950417374380805 37.75056361355154 0.0
    vertex 31.437499999999996 80.0 0.0
    vertex 31.950417374380805 41.83723906731083 0.0
  endloop
endfacet
endsolid House1
